# xmcd
#
# Track frame offsets: 
#        150
#        23735
#        41875
#        63343
#        79090
#        110163
#        126430
#        144743
#        162593
#        179728
#        207588
#
# Disc length: 2999 seconds
#
# Revision: 0
# Processed by: cddbd v1.5PL3 Copyright (c) Steve Scherf et al.
# Submitted via: ExactAudioCopy v0.95a4
#
DISCID=ae0bb50b
DTITLE=Nicoyembe - Madre Monte Salvaje
DYEAR=1900
DGENRE=Latin
TTITLE0=El Preso
TTITLE1=Corncoro
TTITLE2=Merengues
TTITLE3=Las Tapas
TTITLE4=Cumbias
TTITLE5=El Guayabo de la Ye
TTITLE6=El Carretero
TTITLE7=La Negra
TTITLE8=Te Olvidé
TTITLE9=Currulaos
TTITLE10=Coroncoro remix
EXTD=
EXTT0=
EXTT1=
EXTT2=
EXTT3=
EXTT4=
EXTT5=
EXTT6=
EXTT7=
EXTT8=
EXTT9=
EXTT10=
PLAYORDER=
